# 3DCanvas MMCG OBJ File: HoleTest.obj
mtllib HoleTest.mtl
# Object 1 - Wall face
g 
v -9.675 -6.45 0
v 9.675 -6.45 0
v 9.675 6.45 0
v -9.675 6.45 0
vn 0.000000 0.000000 1.000000
vt 0 0
vt 1 0
vt 1 1
vt 0 1
usemtl material_1
f 1/1/1 2/2/1 3/3/1
f 1/1/1 3/3/1 4/4/1
# Object 2 - Wall face
g 
v -8.86875 -5.805 0.3225
v 8.86875 -5.805 0.3225
v 8.86875 5.805 0.3225
v -8.86875 5.805 0.3225
vn 0.000000 0.000000 1.000000
vt 0 0
vt 1 0
vt 1 1
vt 0 1
usemtl material_2
f 5/5/2 6/6/2 7/7/2
f 5/5/2 7/7/2 8/8/2